<svg width="20" height="20" viewBox="0 0 20 20" fill="none" xmlns="http://www.w3.org/2000/svg">
<path d="M10 0C13.6666 0 16.667 3.00031 16.667 6.66699C16.6669 9.08346 15.4165 11.1664 13.5 12.333C16.8334 13.4997 19.3334 16.4167 20 20H18.333C17.4997 16.1667 14.0833 13.333 10 13.333C5.91672 13.333 2.50034 16.1667 1.66699 20H0C0.666641 16.5 3.16668 13.583 6.5 12.333C4.58348 11.1664 3.33312 9.08347 3.33301 6.66699C3.33301 3.00031 6.33336 0 10 0ZM10 1.66699C7.25002 1.66699 5 3.91701 5 6.66699C5.00017 9.41683 7.25012 11.667 10 11.667C12.7499 11.667 14.9998 9.41683 15 6.66699C15 3.91701 12.75 1.66699 10 1.66699Z" fill="#8DD83D"/>
</svg>
