<svg width="63" height="64" viewBox="0 0 63 64" fill="none" xmlns="http://www.w3.org/2000/svg">
<path d="M11.9766 8.38965C14.0479 8.51163 16.2 9.43131 18.1709 10.625C18.2444 10.6723 18.291 10.71 18.291 10.71L18.3154 10.7168C22.4144 13.2388 25.6807 16.8906 25.6807 16.8906C22.1056 20.353 13.5459 30.9778 10.7129 38.0537C6.37642 48.8779 8.35254 53.5713 8.35254 53.5713C8.85207 47.6543 17.7331 37.1014 20.833 33.7412C22.574 31.8509 25.7107 28.6121 28.1299 26.1299V26.1328C30.0147 24.1985 31.4634 22.7262 31.4717 22.7178C32.4364 23.6654 33.3544 24.581 34.2236 25.459C38.1977 29.4733 41.2079 32.7764 43.2305 35.082C45.2702 37.4052 48.9107 41.8295 49.9072 43.2471C54.005 49.0974 54.7589 53.2344 54.8066 53.5117C54.8058 53.5158 54.8055 53.5203 54.8047 53.5244C54.8059 53.5231 54.8064 53.5209 54.8076 53.5195C54.8083 53.5236 54.8095 53.5258 54.8096 53.5264C49.0456 59.9557 40.7375 63.9999 31.5039 64C14.1042 64 0 49.6714 0 32C2.42911e-07 23.5337 3.23499 15.8388 8.52148 10.1133C8.52148 10.1133 9.86097 8.54137 11.9766 8.38965ZM50.3311 8.28223C51.6092 8.19769 53.0264 8.50909 54.1797 9.79492C54.3193 9.95658 54.4718 10.1031 54.6113 10.2598C59.8193 15.9677 62.9999 23.6056 63 31.9971C63 40.2874 59.8961 47.8368 54.8076 53.5195C54.8073 53.5174 54.8072 53.5148 54.8066 53.5117C56.4787 45.3054 53.7519 39.3902 49.1924 31.8652C44.6388 24.3581 37.2123 17.0145 37.1699 16.9727C43.7934 10.6204 49.168 8.65282 50.3311 8.28223ZM31.5039 0C37.417 4.36974e-05 42.9555 1.659 47.6836 4.54395C48.0264 4.75037 48.9619 5.40221 49.4443 5.99414V5.99609C44.8952 0.902874 31.5504 11.7867 31.4746 11.8486C26.837 8.2174 22.5713 5.74279 19.3955 4.8623C16.7413 4.12364 14.9049 4.74077 14.0332 5.42969C14.0014 5.45456 13.9766 5.48196 13.9473 5.50684C14.1259 5.31545 14.3828 5.10904 14.5518 4.99707C19.4832 1.74136 25.1816 0 31.5039 0Z" fill="white"/>
</svg>
